<svg width="40" height="40" viewBox="0 0 40 40" fill="none" xmlns="http://www.w3.org/2000/svg">
<circle cx="20" cy="20" r="20" fill="#F5F6F8"/>
<path d="M18.0236 20.0005L25.0063 14.182C25.285 13.9479 25.4596 13.6129 25.4918 13.2503C25.5241 12.8877 25.4113 12.5272 25.1782 12.2476C24.9452 11.968 24.6108 11.7922 24.2484 11.7586C23.886 11.725 23.525 11.8364 23.2445 12.0684L14.9942 18.9437C14.8395 19.0729 14.715 19.2346 14.6296 19.4172C14.5443 19.5998 14.5 19.7989 14.5 20.0005C14.5 20.2021 14.5443 20.4012 14.6296 20.5838C14.715 20.7664 14.8395 20.9281 14.9942 21.0573L23.2445 27.9326C23.5249 28.1657 23.8863 28.278 24.2494 28.2448C24.6125 28.2117 24.9475 28.0357 25.181 27.7556C25.4144 27.4756 25.5271 27.1143 25.4944 26.7512C25.4616 26.388 25.2861 26.0528 25.0063 25.819L18.0236 20.0005Z" fill="#2A2650"/>
</svg>
