<svg width="40" height="40" viewBox="0 0 40 40" fill="none" xmlns="http://www.w3.org/2000/svg">
<circle cx="20" cy="20" r="20" fill="#F5F6F8"/>
<path d="M21.9764 20.0005L14.9937 14.182C14.715 13.9479 14.5404 13.6129 14.5082 13.2503C14.4759 12.8877 14.5887 12.5272 14.8218 12.2476C15.0548 11.968 15.3892 11.7922 15.7516 11.7586C16.114 11.725 16.475 11.8364 16.7555 12.0684L25.0058 18.9437C25.1605 19.0729 25.285 19.2346 25.3704 19.4172C25.4557 19.5998 25.5 19.7989 25.5 20.0005C25.5 20.2021 25.4557 20.4012 25.3704 20.5838C25.285 20.7664 25.1605 20.9281 25.0058 21.0573L16.7555 27.9326C16.4751 28.1657 16.1137 28.278 15.7506 28.2448C15.3875 28.2117 15.0525 28.0357 14.819 27.7556C14.5856 27.4756 14.4729 27.1143 14.5056 26.7512C14.5384 26.388 14.7139 26.0528 14.9937 25.819L21.9764 20.0005Z" fill="#2A2650"/>
</svg>
